<svg width="13" height="10" viewBox="0 0 13 10" fill="none" xmlns="http://www.w3.org/2000/svg">
<path d="M4.9 0.799999C4.73333 0.799999 4.4 1.1 3.9 1.7C3.4 2.26666 2.93333 2.91666 2.5 3.65C2.1 4.38333 1.9 5.03333 1.9 5.6C1.9 5.76667 1.93333 5.95 2 6.15C2.06667 5.91666 2.21667 5.71666 2.45 5.55C2.71667 5.35 3.08333 5.25 3.55 5.25C4.25 5.25 4.76667 5.45 5.1 5.85C5.46667 6.21667 5.65 6.68333 5.65 7.25C5.65 7.91667 5.38333 8.51666 4.85 9.05C4.35 9.58333 3.66667 9.85 2.8 9.85C2.03333 9.85 1.4 9.63333 0.9 9.2C0.433333 8.76666 0.15 8.25 0.05 7.65C0.0166667 7.48333 0 7.21666 0 6.85C0 5.58333 0.416667 4.38333 1.25 3.25C2.08333 2.08333 3.2 1.16667 4.6 0.499997L4.9 0.799999ZM11.5 0.799999C11.3333 0.799999 11 1.1 10.5 1.7C10 2.26666 9.53333 2.91666 9.1 3.65C8.7 4.38333 8.5 5.03333 8.5 5.6C8.5 5.76667 8.53333 5.95 8.6 6.15C8.66667 5.91666 8.81667 5.71666 9.05 5.55C9.31667 5.35 9.68333 5.25 10.15 5.25C10.85 5.25 11.3667 5.45 11.7 5.85C12.0667 6.21667 12.25 6.68333 12.25 7.25C12.25 7.91667 11.9833 8.51666 11.45 9.05C10.95 9.58333 10.2667 9.85 9.4 9.85C8.63333 9.85 8 9.63333 7.5 9.2C7.03333 8.76666 6.75 8.25 6.65 7.65C6.61667 7.48333 6.6 7.21666 6.6 6.85C6.6 5.58333 7.01667 4.38333 7.85 3.25C8.68333 2.08333 9.8 1.16667 11.2 0.499997L11.5 0.799999Z" fill="black"/>
</svg>
